<svg xmlns="http://www.w3.org/2000/svg" viewBox="0 0 381.87 80.49"><defs><style>.cls-1{fill:#fff;}.cls-2{fill:#15803d;}</style></defs><g id="Layer_2" data-name="Layer 2"><g id="Layer_1-2" data-name="Layer 1"><path class="cls-1" d="M6.88,62.5H8.47q18.2,0,36.38,0c2.84,0,5.41-.61,7.39-2.82a3.93,3.93,0,0,0,.73-.86,8.78,8.78,0,0,0-.12-8.44,7.42,7.42,0,0,0-6-3.49c-1.91-.16-3.83-.11-5.75-.13-5.28,0-10.56.08-15.84-.09a20,20,0,0,1-13.77-5.84,14.49,14.49,0,0,1-4.11-7.3A42.8,42.8,0,0,1,7,20.14c.57-6,4-10.21,9.4-12.95A23.87,23.87,0,0,1,27.46,4.74H69.61c0,.47.07.88.07,1.29,0,3.52,0,7.05,0,10.57,0,1.07-.27,1.38-1.36,1.38-12.21,0-24.41,0-36.62,0-2.28,0-4.5.28-6.28,1.8a8.39,8.39,0,0,0-2.4,3,8,8,0,0,0,.08,6.42,7.45,7.45,0,0,0,6.67,4.39c3.16.19,6.33.1,9.5.12,4,0,7.91,0,11.85.09a20.45,20.45,0,0,1,13.73,5.68,15.6,15.6,0,0,1,4.8,12.18,92.5,92.5,0,0,1-.25,9.72,14.48,14.48,0,0,1-5,8.93c-4.41,4-9.68,5.45-15.49,5.45H8.45c-.5,0-1,0-1.57-.07Z"/><path class="cls-2" d="M72.39,20.26V2.52c-.46,0-.91-.06-1.37-.06q-21.88,0-43.77,0A26.19,26.19,0,0,0,14.61,5.36a22,22,0,0,0-7.16,6.19c-2.86,3.74-3.31,8-3.17,12.39a2.3,2.3,0,0,0,.45,1A2.29,2.29,0,0,1,4.32,28a3.07,3.07,0,0,1-3.78-.26A2.33,2.33,0,0,1,.73,24.6a3,3,0,0,0,.61-1.5c.28-2.36.2-4.81.81-7.07A18.74,18.74,0,0,1,7.23,7.71,23.6,23.6,0,0,1,18.39,1.26,38,38,0,0,1,27.06.07C42.7,0,58.35,0,74,0c.42,0,.84,0,1.3.07V22.61c-.52,0-1,.1-1.57.1H31.48c-1.3,0-2.41.16-3.15,1.52C27.4,26,28.41,29,30.83,29c2-.07,3.91,0,5.87,0,5.08,0,10.17-.08,15.25.15A25.73,25.73,0,0,1,68.66,36a18.76,18.76,0,0,1,6.27,11.25,11.4,11.4,0,0,0,.46,1.42c-.91,0-1.72,0-2.53,0-.17,0-.4-.34-.47-.56-.29-1-.5-1.94-.8-2.9a17.69,17.69,0,0,0-5.72-8.29c-5-4.26-11-5.71-17.38-5.65-5.75.05-11.51,0-17.26,0a7,7,0,0,1-4.46-1.46c-1.39-1.07-2.09-4.39-1.39-6,1.22-2.76,3.46-3.58,6.23-3.58H72.39Z"/><path class="cls-2" d="M1.46,57.78H44.9A5.5,5.5,0,0,0,47,57.48c1.34-.54,1.75-1.82,1.43-3.9a2.57,2.57,0,0,0-2.42-2,12.79,12.79,0,0,0-1.52-.06c-6.45,0-12.91,0-19.36-.09A26.1,26.1,0,0,1,9.74,46.14a19.86,19.86,0,0,1-6.84-8.5c-.19-.48-.46-.93-.82-1.65a8,8,0,0,1,2.49.06,3.28,3.28,0,0,1,1.27,1.5C10.52,45.87,18,49.06,27.14,49.21c6,.1,12,0,18,0a6.66,6.66,0,0,1,4.48,1.39,5.5,5.5,0,0,1-.09,8.27,7,7,0,0,1-4.62,1.32q-19.54,0-39.09,0c-1.52,0-1.52,0-1.52,1.53V78.16h1.4q21.77,0,43.54,0a25.57,25.57,0,0,0,13.86-3.64A19.43,19.43,0,0,0,70.3,67a19.7,19.7,0,0,0,2.09-7.19,1.55,1.55,0,0,0-.52-1.1,2.3,2.3,0,0,1,.72-3.89,3,3,0,0,1,3.14.68c.78,1,.45,1.93-.09,3A11.72,11.72,0,0,0,74.91,62a18.79,18.79,0,0,1-6.16,11.29c-5.4,5.12-12,7.18-19.22,7.2-15.65.06-31.3,0-46.95,0-.75,0-1.25,0-1.24-1,0-7,0-13.93,0-20.9A6,6,0,0,1,1.46,57.78Z"/><path class="cls-2" d="M118.68,70.91a22.49,22.49,0,0,1-8.18-5.37l4-6.83.37-.84.65.38c.13.43.3.92.52,1.45a7.23,7.23,0,0,0,1.35,1.91,19.67,19.67,0,0,0,5.52,3.13,19.39,19.39,0,0,0,6.92,1.17,14.34,14.34,0,0,0,4.58-.69,12.1,12.1,0,0,0,3.6-1.9,8.46,8.46,0,0,0,2.38-2.86,7.92,7.92,0,0,0,.84-3.61,10.16,10.16,0,0,0-.33-2.69,5.75,5.75,0,0,0-1.16-2.23,12.76,12.76,0,0,0-2.25-2,33.16,33.16,0,0,0-3.64-2.23q-2.25-1.2-5.43-2.6A40.3,40.3,0,0,1,119,39.94a16.59,16.59,0,0,1-5-5.76,14.91,14.91,0,0,1-1.49-6.59,13,13,0,0,1,2.24-7.53A15.07,15.07,0,0,1,121,15a24.62,24.62,0,0,1,15.89-1,23.77,23.77,0,0,1,5.66,2.48,19.13,19.13,0,0,1,4.67,4l-4.48,5.61-.56.75-.66-.47a6.33,6.33,0,0,0-.37-1.5A6.76,6.76,0,0,0,139.85,23a11.07,11.07,0,0,0-4.39-2.66,19.61,19.61,0,0,0-5.61-.7,12.62,12.62,0,0,0-3.88.56,7.83,7.83,0,0,0-3,1.67,8.7,8.7,0,0,0-1.91,2.46,6,6,0,0,0-.71,2.83,8.54,8.54,0,0,0,.38,2.64A7.64,7.64,0,0,0,122,32.08a12.25,12.25,0,0,0,2.39,2.27,23.45,23.45,0,0,0,3.92,2.32q2.38,1.17,5.75,2.56a55.71,55.71,0,0,1,7.3,3.62,17.56,17.56,0,0,1,4.53,3.76,13.21,13.21,0,0,1,2.38,4.27A16.37,16.37,0,0,1,149,56,16.77,16.77,0,0,1,147,63.92a15.69,15.69,0,0,1-6.45,6.36q-4.4,2.46-11.4,2.46A28.57,28.57,0,0,1,118.68,70.91Z"/><path class="cls-2" d="M178.36,72.46A24.66,24.66,0,0,1,169.81,71a19.07,19.07,0,0,1-6.73-4.2,18.05,18.05,0,0,1-4.35-6.93,27.63,27.63,0,0,1-1.49-9.42,27.16,27.16,0,0,1,1.54-9.5A20.37,20.37,0,0,1,163,34a18.39,18.39,0,0,1,6.36-4.38,19.86,19.86,0,0,1,7.76-1.53,19.13,19.13,0,0,1,6.92,1.26,15.13,15.13,0,0,1,5.65,3.75,18.09,18.09,0,0,1,3.79,6.36,26.5,26.5,0,0,1,1.4,9c0,.56,0,1.16,0,1.81s-.08,1.22-.14,1.71H164.9a18.46,18.46,0,0,0,1.36,6.42,12.46,12.46,0,0,0,3,4.38,12.24,12.24,0,0,0,4.25,2.5,15.48,15.48,0,0,0,5.09.82,17.2,17.2,0,0,0,4.07-.47,12.63,12.63,0,0,0,3.6-1.49,14.77,14.77,0,0,0,3.08-2.53l4.31,4.12a19.08,19.08,0,0,1-4.26,3.78,17.23,17.23,0,0,1-5.14,2.25A24.43,24.43,0,0,1,178.36,72.46ZM165.18,45.91H187a14.85,14.85,0,0,0-.74-4.88,11.86,11.86,0,0,0-2.06-3.68A8.14,8.14,0,0,0,180.93,35a11,11,0,0,0-4.25-.79,11.55,11.55,0,0,0-4,.69,9.85,9.85,0,0,0-3.41,2.16,13.12,13.12,0,0,0-2.62,3.64A16,16,0,0,0,165.18,45.91Z"/><path class="cls-2" d="M205.85,29h31.69v6.45H205.85ZM221,71.11a9.78,9.78,0,0,1-4.21-4.19,20,20,0,0,1-2.06-7.3,77.58,77.58,0,0,1-.33-10.79l1.13-30.51,8.32-1,.93-.09.09.65a10,10,0,0,0-.79,1.3,7.18,7.18,0,0,0-.51,2.23l-.85,11.34L223,34l-.66,15.06a50.84,50.84,0,0,0,.37,10.36c.44,2.45,1.2,4.14,2.3,5.07a6.14,6.14,0,0,0,4.15,1.39,11.87,11.87,0,0,0,5.47-1.21,35.94,35.94,0,0,0,4.82-3l2.05,6.07a24.46,24.46,0,0,1-6.59,3.51,22.15,22.15,0,0,1-7.24,1.17A14.68,14.68,0,0,1,221,71.11Z"/><path class="cls-2" d="M252.68,9.54h8.7v.76a2.66,2.66,0,0,0-.61,1.22,12.73,12.73,0,0,0-.14,2.26V36.09a17.2,17.2,0,0,1,3.83-4.3A19.09,19.09,0,0,1,269.18,29a13.86,13.86,0,0,1,12,.83,11.58,11.58,0,0,1,4.67,5.75,27.3,27.3,0,0,1,1.64,10.33V71.71h-7.85V46.17a19.9,19.9,0,0,0-.94-6.76,7.27,7.27,0,0,0-2.57-3.61,6.58,6.58,0,0,0-3.79-1.11,10.65,10.65,0,0,0-3.36.55,12.08,12.08,0,0,0-5.84,4.22,11.84,11.84,0,0,0-1.83,3.47,13.71,13.71,0,0,0-.65,4.35V71.71h-7.95Z"/><path class="cls-1" d="M318.59,72.46A24.68,24.68,0,0,1,310,71a19.16,19.16,0,0,1-6.73-4.2A17.92,17.92,0,0,1,299,59.9a27.63,27.63,0,0,1-1.5-9.42A27.16,27.16,0,0,1,299,41a20.39,20.39,0,0,1,4.26-7,18.26,18.26,0,0,1,6.35-4.38,19.86,19.86,0,0,1,7.76-1.53,19.09,19.09,0,0,1,6.92,1.26A15.17,15.17,0,0,1,330,33.06a18.07,18.07,0,0,1,3.78,6.36,26.25,26.25,0,0,1,1.4,9c0,.56,0,1.16,0,1.81S335,51.49,335,52H305.13a18.24,18.24,0,0,0,1.35,6.42,12.46,12.46,0,0,0,3,4.38,12.34,12.34,0,0,0,4.25,2.5,15.49,15.49,0,0,0,5.1.82,17.11,17.11,0,0,0,4.06-.47,12.63,12.63,0,0,0,3.6-1.49,14.82,14.82,0,0,0,3.09-2.53l4.3,4.12a19.26,19.26,0,0,1-4.25,3.78,17.28,17.28,0,0,1-5.15,2.25A24.34,24.34,0,0,1,318.59,72.46ZM305.41,45.91h21.78a14.59,14.59,0,0,0-.75-4.88,11.66,11.66,0,0,0-2.06-3.68A8.18,8.18,0,0,0,321.16,35a11,11,0,0,0-4.25-.79,11.47,11.47,0,0,0-4,.69,9.89,9.89,0,0,0-3.42,2.16,12.89,12.89,0,0,0-2.61,3.64A16,16,0,0,0,305.41,45.91Z"/><path class="cls-1" d="M365.33,72.46A24.68,24.68,0,0,1,356.77,71a19.16,19.16,0,0,1-6.73-4.2,17.92,17.92,0,0,1-4.34-6.93,27.63,27.63,0,0,1-1.5-9.42,27.39,27.39,0,0,1,1.54-9.5A20.39,20.39,0,0,1,350,34a18.26,18.26,0,0,1,6.35-4.38,19.86,19.86,0,0,1,7.76-1.53A19.09,19.09,0,0,1,371,29.31a15.17,15.17,0,0,1,5.66,3.75,17.92,17.92,0,0,1,3.78,6.36,26.25,26.25,0,0,1,1.4,9c0,.56,0,1.16,0,1.81s-.08,1.22-.14,1.71H351.87a18.24,18.24,0,0,0,1.35,6.42,12.46,12.46,0,0,0,3,4.38,12.34,12.34,0,0,0,4.25,2.5,15.49,15.49,0,0,0,5.1.82,17.26,17.26,0,0,0,4.07-.47,12.69,12.69,0,0,0,3.59-1.49,14.82,14.82,0,0,0,3.09-2.53l4.3,4.12a19.26,19.26,0,0,1-4.25,3.78,17.28,17.28,0,0,1-5.15,2.25A24.29,24.29,0,0,1,365.33,72.46ZM352.15,45.91h21.78a14.59,14.59,0,0,0-.75-4.88,11.66,11.66,0,0,0-2.06-3.68A8.11,8.11,0,0,0,367.9,35a11,11,0,0,0-4.25-.79,11.47,11.47,0,0,0-4,.69,9.89,9.89,0,0,0-3.42,2.16,13.09,13.09,0,0,0-2.61,3.64A16,16,0,0,0,352.15,45.91Z"/></g></g></svg>